<svg xmlns="http://www.w3.org/2000/svg" width="65" height="38" stroke="#000" stroke-linecap="round" stroke-linejoin="round" fill="#fff" fill-rule="evenodd"><path d="M64.252 36.3098c-2.3372.5943-3.7829.0261-5.08-1.9215l-9.2241-12.7621-1.3333-1.7669-10.7722 14.5711c-1.2308 1.7529-2.5219 2.5159-4.8189 1.8955l13.7941-18.5166L33.9752 1.0837c2.2087-.4297 3.7347-.2109 5.09 1.7669l9.5675 12.9207 9.6378-12.8504c1.2349-1.7529 2.5621-2.4195 4.7788-1.773l-4.9796 6.6019-6.7464 8.7845c-.8032 1.0039-.6927 1.6906.0462 2.6604L64.252 36.3098zM.0161 17.5l1.1284-5.5497C4.2165.9672 16.8059-3.5967 25.488 3.1899c5.0739 3.9917 6.3348 9.6378 6.0838 15.9626H2.9717c-.4297 11.3847 7.7644 18.2556 18.2114 14.7499 3.6643-1.2309 5.8228-4.1001 6.903-7.6902.5482-1.7991 1.4558-2.0802 3.1464-1.5661-.8634 4.4896-2.811 8.2403-6.9272 10.5875-6.1501 3.5138-14.9285 2.3773-19.5466-2.5058C2.0079 29.8946.8714 26.3046.3614 22.4655.2811 21.831.1205 21.2267 0 20.6183q.0161-1.5581.0161-3.1163zm3.0078-.763h25.8453C28.7006 8.5048 23.5744 2.6578 16.569 2.6076 8.8788 2.5474 3.3572 8.2558 3.0239 16.737z" stroke="none" fill-rule="nonzero"/></svg>