<svg xmlns="http://www.w3.org/2000/svg" width="256" height="256" viewBox="0 0 100 100"><rect width="100" height="100" rx="50" fill="#4ee605"></rect><path d="M72.78 73.53L72.78 73.53Q71.62 74.69 69.42 75.31Q67.22 75.94 64.15 75.94L64.15 75.94Q61.08 75.94 58.34 75.02Q55.60 74.11 53.86 70.63L53.86 70.63L45.64 53.86Q44.40 51.29 43.40 49.00Q42.41 46.72 41.24 43.73L41.24 43.73L40.66 43.90Q41.08 49.13 41.12 53.57Q41.16 58.01 41.16 62.08L41.16 62.08L41.16 75.27Q40.25 75.44 38.42 75.69Q36.60 75.94 34.69 75.94L34.69 75.94Q30.45 75.94 28.84 74.48Q27.22 73.03 27.22 69.30L27.22 69.30L27.22 27.55Q28.38 25.89 30.79 25.06Q33.19 24.23 35.93 24.23L35.93 24.23Q39.00 24.23 41.78 25.18Q44.56 26.14 46.22 29.54L46.22 29.54L54.52 46.31Q55.77 48.88 56.76 51.16Q57.76 53.44 58.92 56.43L58.92 56.43L59.25 56.35Q58.92 52.37 58.88 48.84Q58.84 45.31 58.84 42.07L58.84 42.07L58.84 24.73Q59.75 24.56 61.58 24.31Q63.40 24.06 65.31 24.06L65.31 24.06Q69.55 24.06 71.17 25.51Q72.78 26.97 72.78 30.70L72.78 30.70L72.78 73.53Z" fill="#fff"></path></svg>